<svg xmlns="http://www.w3.org/2000/svg" xmlns:xlink="http://www.w3.org/1999/xlink" width="100pt" height="100pt" viewBox="0 0 100 100" version="1.1"><g id="surface1"><path style=" stroke:none;fill-rule:nonzero;fill:rgb(0%,0%,0%);fill-opacity:1;" d="M 85.417969 25 C 74.542969 27.917969 61.792969 29.167969 50 29.167969 C 38.207031 29.167969 25.457031 27.917969 14.582031 25 L 12.5 33.332031 C 20.25 35.417969 29.167969 36.792969 37.5 37.5 L 37.5 91.667969 L 45.832031 91.667969 L 45.832031 66.667969 L 54.167969 66.667969 L 54.167969 91.667969 L 62.5 91.667969 L 62.5 37.5 C 70.832031 36.792969 79.75 35.417969 87.5 33.332031 Z M 50 25 C 54.582031 25 58.332031 21.25 58.332031 16.667969 C 58.332031 12.082031 54.582031 8.332031 50 8.332031 C 45.417969 8.332031 41.667969 12.082031 41.667969 16.667969 C 41.667969 21.25 45.417969 25 50 25 Z M 50 25 "/></g></svg>
